<svg width="1920" height="1080" viewBox="0 0 1920 1080" fill="none" xmlns="http://www.w3.org/2000/svg">
<g clip-path="url(#clip0_101_109)">
<path d="M1178.55 343.791L1208.91 410.425L1136.02 403.406L1178.55 343.791Z" fill="#F2F5C4" fill-opacity="0.47"/>
<path d="M1237.62 264.534L1267.99 331.167L1195.1 324.149L1237.62 264.534Z" fill="#F2F5C4" fill-opacity="0.47"/>
<path d="M1281.68 353.722L1312.04 420.355L1239.15 413.337L1281.68 353.722Z" fill="#F2F5C4" fill-opacity="0.47"/>
<path d="M1224.04 405.6L1193.67 338.967L1266.56 345.985L1224.04 405.6Z" fill="#F2F5C4" fill-opacity="0.47"/>
<path d="M550.669 831.716L536.696 903.597L481.432 855.556L550.669 831.716Z" fill="#AADDE8" fill-opacity="0.47"/>
<path d="M644.79 801.498L630.818 873.379L575.553 825.338L644.79 801.498Z" fill="#AADDE8" fill-opacity="0.47"/>
<path d="M628.864 899.69L614.892 971.571L559.627 923.53L628.864 899.69Z" fill="#AADDE8" fill-opacity="0.47"/>
<path d="M551.814 908.454L565.787 836.573L621.051 884.614L551.814 908.454Z" fill="#AADDE8" fill-opacity="0.47"/>
<path d="M1136.02 464L1139.4 1376.13L2046.69 515.723L1136.02 464Z" fill="#AADDE8" fill-opacity="0.47"/>
<path d="M698.532 607.451L506.89 -112L0 865.112L698.532 607.451Z" fill="#F2F5C4" fill-opacity="0.47"/>
</g>
<defs>
<clipPath id="clip0_101_109">
<rect width="1920" height="1080" fill="white"/>
</clipPath>
</defs>
</svg>
