<svg width="390" height="844" viewBox="0 0 390 844" fill="none" xmlns="http://www.w3.org/2000/svg">
<g clip-path="url(#clip0_101_112)">
<path d="M268.498 98.9829L285.582 136.478L244.575 132.528L268.498 98.9829Z" fill="#AADDE8" fill-opacity="0.47"/>
<path d="M301.734 54.3848L318.818 91.8794L277.811 87.9301L301.734 54.3848Z" fill="#AADDE8" fill-opacity="0.47"/>
<path d="M326.518 104.571L343.602 142.066L302.596 138.116L326.518 104.571Z" fill="#AADDE8" fill-opacity="0.47"/>
<path d="M294.092 133.763L277.009 96.2682L318.015 100.217L294.092 133.763Z" fill="#AADDE8" fill-opacity="0.47"/>
<path d="M75.0274 711.877L67.1668 752.325L36.0758 725.292L75.0274 711.877Z" fill="#F2F5C4" fill-opacity="0.47"/>
<path d="M127.978 694.874L120.118 735.321L89.0269 708.289L127.978 694.874Z" fill="#F2F5C4" fill-opacity="0.47"/>
<path d="M119.019 750.126L111.158 790.574L80.0671 763.541L119.019 750.126Z" fill="#F2F5C4" fill-opacity="0.47"/>
<path d="M75.6719 755.058L83.5325 714.61L114.624 741.643L75.6719 755.058Z" fill="#F2F5C4" fill-opacity="0.47"/>
<path d="M174.981 371.847L131.167 890.5L446 560L174.981 371.847Z" fill="#F2F5C4" fill-opacity="0.47"/>
<path d="M238.982 306.224L131.167 -98.6121L-154 451.21L238.982 306.224Z" fill="#AADDE8" fill-opacity="0.47"/>
</g>
<defs>
<clipPath id="clip0_101_112">
<rect width="390" height="844" fill="white"/>
</clipPath>
</defs>
</svg>
